<svg xmlns="http://www.w3.org/2000/svg" viewBox="0 0 39.96 62"><defs><style>.cls-1{fill:#f36b2d;}</style></defs><title>Asset 5</title><g id="Layer_2" data-name="Layer 2"><g id="customer_service" data-name="customer service"><path class="cls-1" d="M35.79,38.64v-12a4.66,4.66,0,0,0,3.13-4.39V16.84a4.64,4.64,0,0,0-3.46-4.48C33.86,3.81,26.6,0,19.9,0S6.09,3.86,4.55,12.34a4.65,4.65,0,0,0-3.5,4.5v5.42a4.65,4.65,0,0,0,3.19,4.4V38.59A10.62,10.62,0,0,0,0,46.77V61a1,1,0,0,0,1,1H39a1,1,0,0,0,1-1V46.77A10.62,10.62,0,0,0,35.79,38.64Zm-8.25-3.07H25.87V31.43a11.67,11.67,0,0,0,4.64-5.14,2.55,2.55,0,0,0,1.67.64h1.61V37.29A12.9,12.9,0,0,0,27.54,35.57ZM20,41.88l-3.9-5.63V32.37a11.5,11.5,0,0,0,7.79,0v3.88Zm-9.6-24.17h.23a17.3,17.3,0,0,0,11.94-4.83,13.56,13.56,0,0,0,7,4.55v4A9.55,9.55,0,0,1,29,24.81H23.37a3.56,3.56,0,1,0,0,2h4.57a9.6,9.6,0,0,1-17.56-5.36Zm11.15,8.1A1.56,1.56,0,1,1,20,24.26,1.56,1.56,0,0,1,21.53,25.81Zm-7,11.76,3.9,5.64-5.78,2.53-.36-8.17h2.24Zm10.83,0h2.25l-.37,8.17-5.78-2.53ZM36.92,16.84v5.42a2.67,2.67,0,0,1-2.66,2.67H32.18a.6.6,0,0,1-.59-.59V14.77a.6.6,0,0,1,.59-.59h2.08A2.66,2.66,0,0,1,36.92,16.84ZM19.91,2H20C25.64,2,31.8,5.16,33.39,12.18H32.18a2.59,2.59,0,0,0-2.59,2.59v.59a11.69,11.69,0,0,1-6.13-4.59,1,1,0,0,0-1.58-.09,15.32,15.32,0,0,1-11.5,5v-.92a2.6,2.6,0,0,0-2.59-2.59H6.61C8.15,5.19,14.27,2,19.91,2ZM3.05,22.26V16.84a2.66,2.66,0,0,1,2.66-2.66H7.79a.6.6,0,0,1,.59.59v9.57a.6.6,0,0,1-.59.59H5.71A2.67,2.67,0,0,1,3.05,22.26Zm3.19,4.67H7.79a2.53,2.53,0,0,0,1.66-.63,11.68,11.68,0,0,0,4.63,5.13v4.14H12.41a12.91,12.91,0,0,0-6.17,1.68ZM38,60H31.83c1.24-1.94,1.48-4.51.85-8.24a1,1,0,1,0-2,.33c.77,4.62,0,6.57-1.48,7.91H10.72c-1.47-1.34-2.25-3.29-1.47-7.91a1,1,0,0,0-.82-1.15,1,1,0,0,0-1.15.82c-.63,3.73-.39,6.3.84,8.24H2V46.77c0-4.44,4.12-8,8.33-9l.42,9.48a1,1,0,0,0,.47.8,1,1,0,0,0,.53.16.93.93,0,0,0,.4-.09L20,44.73l7.82,3.43a1,1,0,0,0,.41.09,1,1,0,0,0,.52-.16,1,1,0,0,0,.47-.8l.43-9.48c4.21.93,8.33,4.52,8.33,9Z"/><path class="cls-1" d="M19.5,49.09l-.05,0a1,1,0,0,0-.37,1.34A1,1,0,0,0,20,51a1,1,0,0,0,.49-.13,1,1,0,1,0-.95-1.75Z"/><path class="cls-1" d="M19.5,55.1l-.05,0A1,1,0,0,0,20,57a1,1,0,0,0,.49-.12,1,1,0,0,0-.95-1.76Z"/></g></g></svg>