<svg xmlns="http://www.w3.org/2000/svg" viewBox="0 0 59.23 62"><defs><style>.cls-1{fill:#f36b2d;}</style></defs><title>Asset 6</title><g id="Layer_2" data-name="Layer 2"><g id="consult"><path class="cls-1" d="M29.61,32.87a1,1,0,0,1-.92-.57A1,1,0,0,1,29.16,31l0,0A1,1,0,1,1,30,32.77,1,1,0,0,1,29.61,32.87Z"/><path class="cls-1" d="M11.13,51.77h-7a1,1,0,0,0,0,2h7a1,1,0,1,0,0-2Z"/><path class="cls-1" d="M3.17,49.1a1,1,0,0,0,1,1h7a1,1,0,1,0,0-2h-7A1,1,0,0,0,3.17,49.1Z"/><path class="cls-1" d="M11.13,55.43h-7a1,1,0,0,0,0,2h7a1,1,0,1,0,0-2Z"/><path class="cls-1" d="M31.74,53.77a1,1,0,1,0,0-2H27.49a1,1,0,0,0,0,2Z"/><path class="cls-1" d="M25.14,49.1a1,1,0,0,0,1,1h7a1,1,0,0,0,0-2h-7A1,1,0,0,0,25.14,49.1Z"/><path class="cls-1" d="M33.09,55.43h-7a1,1,0,1,0,0,2h7a1,1,0,0,0,0-2Z"/><path class="cls-1" d="M57,43.53H52L40.83,33.17a18.49,18.49,0,1,0-22.3.1l-11,10.26H2.22A2.23,2.23,0,0,0,0,45.75v14A2.23,2.23,0,0,0,2.22,62H13.08a2.23,2.23,0,0,0,2.22-2.22v-14a2.23,2.23,0,0,0-2.22-2.22H10.44l9.8-9.12a18.26,18.26,0,0,0,8.38,2.53v6.59H24.18A2.22,2.22,0,0,0,22,45.75v14A2.22,2.22,0,0,0,24.18,62H35.05a2.22,2.22,0,0,0,2.21-2.22v-14a2.22,2.22,0,0,0-2.21-2.22H30.62V36.94a18.4,18.4,0,0,0,8.52-2.62L49,43.53H46.15a2.23,2.23,0,0,0-2.22,2.22v14A2.23,2.23,0,0,0,46.15,62H57a2.22,2.22,0,0,0,2.22-2.22v-14A2.22,2.22,0,0,0,57,43.53ZM13.3,45.75v14a.22.22,0,0,1-.22.22H2.22A.22.22,0,0,1,2,59.78v-14a.22.22,0,0,1,.22-.22H13.08A.22.22,0,0,1,13.3,45.75Zm22,0v14a.22.22,0,0,1-.21.22H24.18a.22.22,0,0,1-.21-.22v-14a.22.22,0,0,1,.21-.22H35.05A.22.22,0,0,1,35.26,45.75ZM29.62,35a16.4,16.4,0,0,1-10.88-4.13v-.41a6.3,6.3,0,0,1,2.78-5.23l3.39,4.45a1,1,0,0,0,.8.39,1,1,0,0,0,.56-.17l3.35-2.27L33,29.89a1,1,0,0,0,.56.17,1,1,0,0,0,.8-.39l3.39-4.45a6.3,6.3,0,0,1,2.78,5.23v.41A16.39,16.39,0,0,1,29.62,35Zm1-25a8.21,8.21,0,0,0,4.55,2.65c-.39,5.27-3,7.69-5.51,7.69s-5.07-2.38-5.51-7.54A9.36,9.36,0,0,0,30.58,10Zm-6.51.81a5.57,5.57,0,0,1,11.07-.22,6.57,6.57,0,0,1-3.68-2.68,1,1,0,0,0-.76-.42,1,1,0,0,0-.8.33A7.78,7.78,0,0,1,24.07,10.76Zm9.45,13.37h.66a6.52,6.52,0,0,1,1.66.23L33.3,27.7l-2.09-1.41Zm-3.9.91L27.11,22.7v-1a5.88,5.88,0,0,0,5,0v1ZM28,26.29,25.93,27.7l-2.54-3.34a6.52,6.52,0,0,1,1.66-.23h.66Zm-14.9-7.8A16.5,16.5,0,1,1,42.35,29a8.33,8.33,0,0,0-8.17-6.84h-.06v-1.8c1.78-1.77,3.07-4.75,3.07-9.09a7.58,7.58,0,0,0-15.15,0c0,4.34,1.29,7.32,3.07,9.09v1.8h-.06A8.33,8.33,0,0,0,16.88,29,16.41,16.41,0,0,1,13.12,18.49ZM57.23,59.78A.22.22,0,0,1,57,60H46.15a.22.22,0,0,1-.22-.22v-14a.22.22,0,0,1,.22-.22H57a.22.22,0,0,1,.22.22Z"/><path class="cls-1" d="M55.35,48a1,1,0,0,0-1.35.43l-3.32,6.41-1.34-1.6a1,1,0,0,0-1.4-.12,1,1,0,0,0-.13,1.41l2.3,2.74a1,1,0,0,0,.76.36H51a1,1,0,0,0,.78-.54l4-7.74A1,1,0,0,0,55.35,48Z"/></g></g></svg>