<svg xmlns="http://www.w3.org/2000/svg" viewBox="0 0 62 61.69"><defs><style>.cls-1{fill:#f36b2d;}</style></defs><title>Asset 3</title><g id="Layer_2" data-name="Layer 2"><g id="interview"><path class="cls-1" d="M24.33,6.76H12.9a1,1,0,0,1,0-2H24.33a1,1,0,0,1,0,2Z"/><path class="cls-1" d="M42.85,42.24a1,1,0,0,0,.49-.13,1,1,0,1,0-1-1.75h0A1,1,0,0,0,42,41.72,1,1,0,0,0,42.85,42.24Z"/><path class="cls-1" d="M42.37,44l0,0a1,1,0,0,0,.51,1.86,1,1,0,0,0,.89-1.5A1,1,0,0,0,42.37,44Z"/><path class="cls-1" d="M58.64,53h-.25a4.09,4.09,0,0,0,.29-1.53v-11a9.31,9.31,0,0,0-8-9.19l-.1,0a8.55,8.55,0,0,0-1.25-.09H47.86V28.93c2-2,3.46-5.34,3.46-10.24a8.46,8.46,0,1,0-16.91,0,15.37,15.37,0,0,0,2.52,9.14,9.23,9.23,0,0,0,1,1.09v2.27H36.37a9.31,9.31,0,0,0-9.3,9.3V45A9.92,9.92,0,0,0,22,43V40.76a2.07,2.07,0,0,0-.67-1.52c1.94-2.38,3-5.89,3-10.11a9,9,0,0,0-17.92,0c0,4.22,1.06,7.73,3,10.11a2.1,2.1,0,0,0-.66,1.52V43A9.78,9.78,0,0,0,0,52.62v8.07a1,1,0,0,0,1,1H29.78a1,1,0,0,0,1-1v-1H58.64a3.37,3.37,0,0,0,0-6.73ZM49,33.19l-2.11,4.25-2.45-1.66,2.78-2.59Zm-6.16,1.35-3-2.79V30.36a6.65,6.65,0,0,0,3,.73,6.73,6.73,0,0,0,3-.71v1.36Zm0-22.31a6.47,6.47,0,0,1,6.43,5.86,7.54,7.54,0,0,1-4.46-3.16,1,1,0,0,0-.76-.41,1,1,0,0,0-.79.33c-2.51,2.79-4.83,3.39-6.85,3.43A6.46,6.46,0,0,1,42.86,12.23Zm-6.39,8.05A10.51,10.51,0,0,0,44,17a9.15,9.15,0,0,0,5.32,3.1c-.42,6.14-3.51,9-6.4,9S36.94,26.32,36.47,20.28Zm2,12.91,2.78,2.59-2.45,1.66-2.11-4.25Zm-9.42,7.3a7.31,7.31,0,0,1,5.52-7.08l2.94,5.94a1,1,0,0,0,.65.53,1.07,1.07,0,0,0,.25,0,1,1,0,0,0,.56-.17l3.87-2.63,3.88,2.63a1,1,0,0,0,.56.17,1.15,1.15,0,0,0,.26,0,1.05,1.05,0,0,0,.64-.53l2.94-5.94a7.31,7.31,0,0,1,5.54,7.08v11c0,.58-.17,1.53-1.27,1.53H48.88a12.15,12.15,0,0,0-2.62-3.31H51.4a1,1,0,0,0,1-1V41.58a1,1,0,0,0-2,0v6.09H41.62l-.13,0-.51,0H35.34V41.58a1,1,0,0,0-2,0v7.09a1,1,0,0,0,1,1h3.47V53h-7v-.36a9.51,9.51,0,0,0-1.71-5.46ZM41,49.67A6.8,6.8,0,0,1,46.54,53H39.81V49.67Zm-29.37-11A8.39,8.39,0,0,1,10.25,37H20.53a8.67,8.67,0,0,1-1.36,1.72Zm-.85,2.09a.1.1,0,0,1,.09-.09h9.08a.1.1,0,0,1,.09.09v2.15H10.76Zm4.63-18.59a7,7,0,0,1,7,7A17.72,17.72,0,0,1,21.47,35H9.31a17.72,17.72,0,0,1-.88-5.82A7,7,0,0,1,15.39,22.17ZM28.78,59.69H2V52.62a7.8,7.8,0,0,1,7.86-7.71H20.92a7.8,7.8,0,0,1,7.86,7.71Zm29.86-2H30.78V55H58.64a1.37,1.37,0,0,1,0,2.73Z"/><path class="cls-1" d="M13.24,15.5h9l4.61,3.27a.94.94,0,0,0,.58.19,1,1,0,0,0,.45-.11,1,1,0,0,0,.55-.89V14.12A7.75,7.75,0,0,0,24,0H13.24a7.75,7.75,0,0,0,0,15.5Zm0-13.5H24a5.75,5.75,0,0,1,2.89,10.71,1,1,0,0,0-.49.86V16l-3.29-2.34a1,1,0,0,0-.58-.18H13.24a5.75,5.75,0,0,1,0-11.5Z"/><path class="cls-1" d="M16.19,10.79h8.14a1,1,0,0,0,0-2H16.19a1,1,0,1,0,0,2Z"/></g></g></svg>