<svg xmlns="http://www.w3.org/2000/svg" viewBox="0 0 54.33 62"><defs><style>.cls-1{fill:#f36b2d;}</style></defs><title>Asset 4</title><g id="Layer_2" data-name="Layer 2"><g id="cv"><path class="cls-1" d="M15.09,37.15H30.84a2.8,2.8,0,0,0,2.81-2.8V18.59a2.81,2.81,0,0,0-2.81-2.8H15.09a2.8,2.8,0,0,0-2.8,2.8V34.35A2.8,2.8,0,0,0,15.09,37.15Zm3.71-2V33.23a4.17,4.17,0,1,1,8.33,0v1.92ZM14.29,18.59a.8.8,0,0,1,.8-.8H30.84a.8.8,0,0,1,.81.8V34.35a.8.8,0,0,1-.81.8H29.13V33.23a6.17,6.17,0,1,0-12.33,0v1.92H15.09a.8.8,0,0,1-.8-.8Z"/><path class="cls-1" d="M23,50.55H7.72a1,1,0,1,0,0,2H23a1,1,0,0,0,0-2Z"/><path class="cls-1" d="M23,26.29a3.82,3.82,0,1,0-3.82-3.81A3.82,3.82,0,0,0,23,26.29Zm0-5.63a1.82,1.82,0,1,1-1.82,1.82A1.82,1.82,0,0,1,23,20.66Z"/><path class="cls-1" d="M48.93,44A2.78,2.78,0,0,0,45,44.2l-4.71,5.29-.81-.72a2.88,2.88,0,0,0-3.82,4.3l3.12,2.77a2.69,2.69,0,0,0,1.72.81h.12c.86-.07,1.38-.68,2-1.4l6.53-7.36a2.75,2.75,0,0,0,.7-2A2.72,2.72,0,0,0,48.93,44Zm-1.26,2.59s-7,7.95-7.17,8.06a1.65,1.65,0,0,1-.38-.28L37,51.58a.88.88,0,0,1-.07-1.24.86.86,0,0,1,.6-.29h.06a.88.88,0,0,1,.58.21l1.55,1.39a1,1,0,0,0,1.42-.08l5.36-6a.78.78,0,0,1,1.1-.06h0a.74.74,0,0,1,.25.53A.73.73,0,0,1,47.67,46.56Z"/><path class="cls-1" d="M45.94,38.49V9.85A3.56,3.56,0,0,0,42.38,6.3H32.5a2.92,2.92,0,0,0-2.91-2.69H27.7V3.34A3.35,3.35,0,0,0,24.35,0H21.58a3.35,3.35,0,0,0-3.34,3.34v.27H16.35A2.94,2.94,0,0,0,13.43,6.3H3.55A3.55,3.55,0,0,0,0,9.85V57.48A3.56,3.56,0,0,0,3.55,61h34a12,12,0,1,0,8.36-22.55ZM15.41,6.54a.93.93,0,0,1,.94-.93h2.89a1,1,0,0,0,1-1V3.34A1.34,1.34,0,0,1,21.58,2h2.77A1.35,1.35,0,0,1,25.7,3.34V4.61a1,1,0,0,0,1,1h2.89a.93.93,0,0,1,.94.93V8.48a.94.94,0,0,1-.94.94H16.35a.94.94,0,0,1-.94-.94ZM3.55,59A1.56,1.56,0,0,1,2,57.48V9.85A1.56,1.56,0,0,1,3.55,8.3h9.86v.18a2.94,2.94,0,0,0,2.94,2.94H29.59a2.94,2.94,0,0,0,2.94-2.94V8.3h9.85a1.56,1.56,0,0,1,1.56,1.55V38h-.18a11.83,11.83,0,0,0-1.47-.1,12,12,0,0,0-7.81,2.9H7.72a1,1,0,1,0,0,2H32.63a12.07,12.07,0,0,0-1.58,2.86H7.72a1,1,0,1,0,0,2H30.48A12.24,12.24,0,0,0,30.25,50a12,12,0,0,0,3.9,8.84c.08.08.14.16.23.24Zm38.74,1a10,10,0,1,1,10-10A10.05,10.05,0,0,1,42.29,60Z"/></g></g></svg>