<svg xmlns="http://www.w3.org/2000/svg" viewBox="0 0 58.22 62"><defs><style>.cls-1{fill:#f36b2d;}</style></defs><title>Asset 1</title><g id="Layer_2" data-name="Layer 2"><g id="searching"><path class="cls-1" d="M36.85,30.65a1,1,0,0,1-.51-1.86l0,0a1,1,0,0,1,1.36.39,1,1,0,0,1-.39,1.36A1,1,0,0,1,36.85,30.65Z"/><path class="cls-1" d="M36.85,36.45A1,1,0,0,1,36,36a1,1,0,0,1,.36-1.36h0a1,1,0,1,1,.49,1.87Z"/><path class="cls-1" d="M52.09,10.63a21,21,0,0,0-7.64-5,7.93,7.93,0,0,0-15.19,0,21.13,21.13,0,0,0-7.39,4.74A21.37,21.37,0,0,0,21,39.86l-1.62,1.59a6.3,6.3,0,0,0-8.16.58l-2.55,2.5L1.88,51.19a6.33,6.33,0,0,0-.07,8.93,6.33,6.33,0,0,0,8.93.07L20.05,51a6.33,6.33,0,0,0,.71-8.16l1.61-1.58A21.36,21.36,0,0,0,52.09,10.63Zm-4.54,4.46a15,15,0,0,1,2.84,17V28.21a8.73,8.73,0,0,0-8.72-8.72h-.11v-2a10.6,10.6,0,0,0,2.68-4.94A15.35,15.35,0,0,1,47.55,15.09ZM41,21.49h.72a6.59,6.59,0,0,1,2.09.34l-3,3.58-2.33-1.59Zm-4.09,1.09-2.7-2.52V18.91a6.06,6.06,0,0,0,5.4,0v1.14Zm0-5c-2.62,0-5.42-2.55-5.87-8.07a9.83,9.83,0,0,0,6.89-3,8.55,8.55,0,0,0,4.86,2.83C42.34,15,39.51,17.55,36.86,17.55Zm-1.6,6.27-2.34,1.59-3-3.58a6.59,6.59,0,0,1,2.09-.34h.71ZM32,27.38a1,1,0,0,0,.77.36,1,1,0,0,0,.56-.17l3.57-2.41,3.56,2.41a1,1,0,0,0,1.33-.19l3.83-4.62a6.7,6.7,0,0,1,2.81,5.45v7a12.91,12.91,0,0,1-1,1.09,15,15,0,0,1-21.21-.16c-.3-.3-.58-.62-.85-.94v-7a6.73,6.73,0,0,1,2.81-5.45ZM36.86,2a6,6,0,0,1,5.9,5.28,6.94,6.94,0,0,1-4-2.88A1,1,0,0,0,38,4a1,1,0,0,0-.8.33A8.3,8.3,0,0,1,31,7.49,5.93,5.93,0,0,1,36.86,2ZM29.48,12.55a11.61,11.61,0,0,0,1.81,3.94,7.52,7.52,0,0,0,.87,1v2h-.11a8.74,8.74,0,0,0-8.73,8.72v3.87a15,15,0,0,1,3-17.16A15.39,15.39,0,0,1,29.48,12.55ZM12.39,55.76,6.34,49.61l3-3,6.05,6.15Zm-3.06,3a4.31,4.31,0,0,1-6.05-6.15L4.91,51,11,57.16Zm9.32-9.17-1.84,1.81-6-6.15,1.83-1.81a4.31,4.31,0,0,1,3-1.23h0a4.3,4.3,0,0,1,3,1.28h0A4.32,4.32,0,0,1,18.65,49.6Zm31.8-10.18a19.39,19.39,0,0,1-27.39-.21h0a19.4,19.4,0,0,1,.22-27.4A19,19,0,0,1,28.93,8a18.92,18.92,0,0,0,.16,2.54,17,17,0,0,0,7.63,32.12h.14a16.92,16.92,0,0,0,11.93-4.89c.46-.46.89-1,1.3-1.45l.06-.08a16.95,16.95,0,0,0-5.52-25.7A20.36,20.36,0,0,0,44.79,8,19.07,19.07,0,0,1,50.66,12,19.39,19.39,0,0,1,50.45,39.42Z"/></g></g></svg>