<svg xmlns="http://www.w3.org/2000/svg" viewBox="0 0 62.1 62"><defs><style>.cls-1{fill:#f36b2d;}</style></defs><title>Asset 7</title><g id="Layer_2" data-name="Layer 2"><g id="progress"><path class="cls-1" d="M27.92,30.69a1,1,0,0,1-.9-.55,1,1,0,0,1,.43-1.33l0,0a1,1,0,0,1,1.34.45,1,1,0,0,1-.44,1.34A1.11,1.11,0,0,1,27.92,30.69Z"/><path class="cls-1" d="M62.1,36.17a4,4,0,1,0-8.05,0,3.68,3.68,0,0,0,.06.58L43.4,41.27a4,4,0,0,0-1.37-1V29.44A9.08,9.08,0,0,0,33,20.37H32.8V18.23c2-1.93,3.38-5.2,3.38-10a8.25,8.25,0,0,0-16.5,0,15,15,0,0,0,2.46,8.91,8.43,8.43,0,0,0,.92,1.05v2.16H22.9a9.08,9.08,0,0,0-9.07,9.07V42.11L8.38,43.75a4,4,0,1,0-4.43,6V60H1a1,1,0,0,0,0,2H58.07a1,1,0,0,0,1-1v-21A4,4,0,0,0,62.1,36.17ZM42.5,44a2,2,0,1,1-2-2A2,2,0,0,1,42.5,44ZM22.66,42.38a2,2,0,1,1,2-2A2,2,0,0,1,22.66,42.38Zm1,1.86a4,4,0,0,0,2.78-2.55l10,2.4a4,4,0,0,0,3,3.82V60H23.66ZM33,22.37h.28l-1.49,4-2.23-1.51,2.67-2.49Zm-5,1.24-2.87-2.67v-1.3a6.46,6.46,0,0,0,2.87.7,6.63,6.63,0,0,0,2.87-.68v1.27ZM27.93,2a6.25,6.25,0,0,1,6.21,5.62,7.32,7.32,0,0,1-4.27-3,1,1,0,0,0-1.55-.08c-2.43,2.69-4.67,3.29-6.62,3.33A6.25,6.25,0,0,1,27.93,2ZM21.75,9.82A10.19,10.19,0,0,0,29,6.68a9,9,0,0,0,5.13,3c-.41,5.94-3.4,8.67-6.19,8.67S22.2,15.65,21.75,9.82ZM22.9,22.37h.77l2.66,2.49-2.22,1.51-1.5-4Zm-7.07,7.07a7.08,7.08,0,0,1,4.78-6.69l2.07,5.51a1,1,0,0,0,.63.6,1.12,1.12,0,0,0,.31.05,1,1,0,0,0,.56-.18l3.75-2.54,3.75,2.54a.94.94,0,0,0,.56.18,1,1,0,0,0,.3-.05,1,1,0,0,0,.63-.6l2.07-5.51A7.09,7.09,0,0,1,40,29.44V40a4,4,0,0,0-3.1,2.1L26.62,39.67a4,4,0,0,0-8,.68c0,.1,0,.2,0,.3l-2.84.85ZM2.93,45.83a2,2,0,1,1,2,2A2,2,0,0,1,2.93,45.83Zm3,3.88a4,4,0,0,0,3-3.88c0-.06,0-.11,0-.17L19.3,42.55a4.05,4.05,0,0,0,2.36,1.7V60H6ZM41.47,60V47.91a4,4,0,0,0,3-3.89,4.08,4.08,0,0,0-.14-1L54.89,38.6a4.07,4.07,0,0,0,2.18,1.46V60Zm16.6-21.81a2,2,0,1,1,2-2A2,2,0,0,1,58.07,38.19Z"/><path class="cls-1" d="M27.92,36a1,1,0,0,1-.9-.54,1,1,0,0,1,.43-1.34h0a1,1,0,0,1,1.34.44,1,1,0,0,1-.44,1.35A1.09,1.09,0,0,1,27.92,36Z"/></g></g></svg>